# xmcd
#
# Track frame offsets:
#	150
#	22412
#	50400
#	70865
#	89642
#	105550
#	134397
#	146680
#	171742
#	198355
#	214942
#	243070
#
# Disc length: 3899 seconds
#
# Revision: 1
# Processed by: cddbd v1.4PL0 Copyright (c) Steve Scherf et al.
# Submitted via: EasyCDDAExtractor 5.1.0
#
DISCID=ba0f390c
DTITLE=The Urn
DYEAR=1998
DGENRE=Blues-Rock
TTITLE0=Make My Day
TTITLE1=Cry Myself To Sleep
TTITLE2=Eyes On The Road
TTITLE3=Near The Urn
TTITLE4=I Thought I Had A Flash
TTITLE5=Drunken Man
TTITLE6=Born Leo
TTITLE7=People Killing People
TTITLE8=Sister Morphine
TTITLE9=Ordinary Blues
TTITLE10=No Not Now
TTITLE11=The Monster
EXTD=[1256]
EXTT0=
EXTT1=
EXTT2=
EXTT3=
EXTT4=
EXTT5=
EXTT6=
EXTT7=
EXTT8=
EXTT9=
EXTT10=
EXTT11=
PLAYORDER=
